Simulation
nRows=27
nColumns=15
endheader
time  TH_x TH_y TH_z SC_y  SC_z  SC_x  AC_y  AC_z  AC_x  GH_y  GH_z  GH_yy  EL_x  PS_y
0.0  0.000000  0.000000  0.000000  -29.178736135073848  -0.8696520285160071  -1.984668380667706  56.33615299373779  8.613546224199652  -6.616476521925322  31.840726501502726  16.201673742057352  8.525002705562699  27.09623829132712  0.000000
0.038999999999999986  0.000000  0.000000  0.000000  -28.902742448551848  -0.676206496166668  -2.1505603556520927  56.03839191487848  8.702742381955158  -6.535215155830601  31.87254539644841  16.266106860405866  8.437461892049678  26.696222345291144  0.000000
0.07799999999999997  0.000000  0.000000  0.000000  -28.659268333747658  -0.5611311058364121  -2.397834542797665  55.753835552652355  8.753682370734788  -6.460513148559966  31.78190570153505  16.25996309192701  8.475819266554  26.285523712530228  0.000000
0.11699999999999997  0.000000  0.000000  0.000000  -28.44253129225715  -0.5212565912962577  -2.7163057772767965  55.53290301189718  8.821068429034973  -6.3575777515350165  31.682881892673525  16.268470978817053  8.482387483438565  25.892781649789224  0.000000
0.15599999999999994  0.000000  0.000000  0.000000  -28.25416742938256  -0.5456537317088341  -3.0748585581614005  55.415533802620395  8.934460508341033  -6.212025643007455  31.745775930980166  16.388462991551833  8.21610423667383  25.53974543551169  0.000000
0.19499999999999992  0.000000  0.000000  0.000000  -28.110579148035438  -0.6098775343717875  -3.422715673128495  55.42125415535973  9.096766466262293  -6.024011209214591  32.158542373347466  16.708622824514197  7.432985912385227  25.246098712973982  0.000000
0.23399999999999993  0.000000  0.000000  0.000000  -28.022961741101177  -0.6865516531884944  -3.712283532603664  55.542863938008516  9.301144682080315  -5.809670362552888  33.07417140982032  17.29529695554819  5.9388150650952305  25.02375017862896  0.000000
0.2729999999999999  0.000000  0.000000  0.000000  -28.000740773167475  -0.75466633652812  -3.9056512944014075  55.76106405034426  9.533516560968334  -5.59166210019275  34.536460076823516  18.1916575474123  3.6694229540215084  24.870808859903878  0.000000
0.3119999999999999  0.000000  0.000000  0.000000  -28.03706766336409  -0.7990807919152899  -3.9772501966255773  56.05049173831084  9.774700570250458  -5.391423156980074  36.45719445443166  19.413534708406814  0.7050806933432673  24.779741886158003  0.000000
0.35099999999999987  0.000000  0.000000  0.000000  -28.10838156874565  -0.8139722620922869  -3.909837677771535  56.391821389433645  10.004575786015202  -5.226777972144793  38.63279559607054  20.948794031676375  -2.74041413091687  24.74093104781125  0.000000
0.38999999999999985  0.000000  0.000000  0.000000  -28.176416476596614  -0.801509983742619  -3.6956792643309253  56.76963357878798  10.210980099638359  -5.110981350714019  40.82189379639742  22.757195883826792  -6.401336384194446  24.749076417401024  0.000000
0.4289999999999998  0.000000  0.000000  0.000000  -28.204351945230364  -0.7669868255495529  -3.3340486871141315  57.174492692252365  10.392181080070026  -5.051740791607363  42.82397736759815  24.777824406941907  -10.037926283870183  24.804486897254172  0.000000
0.46799999999999986  0.000000  0.000000  0.000000  -28.166293128159584  -0.7156253626489891  -2.826460733050398  57.599678243933944  10.551945813659646  -5.052708945854598  44.52808417760165  26.94141149609684  -13.493425885592359  24.902201751854008  0.000000
0.5069999999999998  0.000000  0.000000  0.000000  -28.05129822584018  -0.6513208602951468  -2.172376202722445  58.040383247843025  10.694859901407925  -5.116800841341849  45.91350798999652  29.182124666037033  -16.7027367155646  25.024948321465462  0.000000
0.5459999999999998  0.000000  0.000000  0.000000  -27.865974835540676  -0.5736611010790666  -1.3675916796701217  58.487812242727976  10.821375161790092  -5.247239766071175  47.03008932569502  31.44565067474943  -19.681639781245252  25.148798881724854  0.000000
0.5849999999999997  0.000000  0.000000  0.000000  -27.635532638627268  -0.4779423609047712  -0.40674621823514473  58.92763639743213  10.927064132406043  -5.4476812969650235  47.96908675939863  33.6934712071484  -22.504522358262363  25.25177421872525  0.000000
0.6239999999999998  0.000000  0.000000  0.000000  -27.397788437451133  -0.3580012012448735  0.7125564096369141  59.34135480476036  11.004404486132026  -5.720249867907914  48.831870768163576  35.903252673258166  -25.27092626632852  25.31924872673921  0.000000
0.6629999999999998  0.000000  0.000000  0.000000  -27.190085459406333  -0.20854281510812986  1.9876831291653725  59.71275858122065  11.045580857353649  -6.062408140181964  49.69948974133783  38.06522334131601  -28.064155216997644  25.343430026117574  0.000000
0.7019999999999997  0.000000  0.000000  0.000000  -27.03363994287993  -0.026595804661214348  3.4122082796176065  60.03400036347524  11.045130689862406  -6.465024731723575  50.60893736559765  40.17500569276145  -30.909387788643183  25.321014335533203  0.000000
0.7409999999999998  0.000000  0.000000  0.000000  -26.924981723545947  0.1871637553590607  4.97735573539182  60.308651132004854  11.001316297073982  -6.912538711940647  51.545810391050786  42.22611923740553  -33.75704860263858  25.250957180558327  0.000000
0.7799999999999997  0.000000  0.000000  0.000000  -26.84231534598763  0.4289134476023663  6.669996267815213  60.548345393236445  10.915664075097084  -7.383621126518619  52.457453688346895  44.20578245232102  -36.50079905966349  25.136221464729736  0.000000
0.8189999999999997  0.000000  0.000000  0.000000  -26.76145156289099  0.6935202889697867  8.46762714524087  60.76672112633359  10.79118027000832  -7.85147186545311  53.27588507956608  46.09507909740713  -39.01958845071022  24.987908953340913  0.000000
0.8579999999999997  0.000000  0.000000  0.000000  -26.670696710140714  0.9759534107803987  10.332624897401503  60.97546053068228  10.6309870378395  -8.284250586918192  53.93861989609796  47.87389099549114  -41.21775058734447  24.825532550915668  0.000000
0.8969999999999997  0.000000  0.000000  0.000000  -26.57488953380286  1.2735174464607772  12.21108977562995  61.18453002577365  10.439109430046924  -8.645174882063234  54.39539137865447  49.52517344090989  -43.040357157895464  24.674322139798264  0.000000
0.9359999999999997  0.000000  0.000000  0.000000  -26.49291108498683  1.5868097430865913  14.038808741726033  61.40460343490307  10.223460418049084  -8.89541174004198  54.61111181374206  51.03894974572171  -44.47140916968486  24.556953853408242  0.000000
0.9749999999999996  0.000000  0.000000  0.000000  -26.449034605059  1.92105489902317  15.751803116587096  61.64806803023593  9.994026215581625  -8.997426258860065  54.56524771658503  52.41541358641927  -45.523124604574626  24.485195813119713  0.000000
1.0139999999999996  0.000000  0.000000  0.000000  -26.459519184027982  2.2785653397735985  17.301400737610777  61.92133986105569  9.768835586459195  -8.930438018954264  54.26920206199442  53.662663613937525  -46.23833655338805  24.457450004736984  0.000000
